<svg width="131" height="163" viewBox="0 0 131 163" fill="none" xmlns="http://www.w3.org/2000/svg">
<path d="M77.5898 81.4198L130.02 105.51V57.3398L77.5898 81.4198Z" fill="#FFCC00"/>
<path d="M15.65 89.13C7 89.13 0 81.42 0 81.42C0 81.42 7.01 73.71 15.65 73.71C24.29 73.71 31.3 81.42 31.3 81.42C31.3 81.42 24.29 89.13 15.65 89.13Z" fill="black"/>
<path d="M43.4902 81.42C43.4902 108.09 25.6102 117.71 24.7602 134.35C23.7702 153.88 44.3402 162.84 44.3402 162.84C44.3402 162.84 30.1002 149.63 35.5502 134.64C41.5002 118.27 59.9702 103.17 59.9702 81.42C59.9702 59.67 41.5002 44.57 35.5502 28.2C30.1002 13.21 44.3402 0 44.3402 0C44.3402 0 23.7702 8.96 24.7602 28.49C25.6002 45.13 43.4902 54.75 43.4902 81.42Z" fill="#006FB9"/>
</svg>
